<svg xmlns="http://www.w3.org/2000/svg" viewBox="0 0 30 30"><defs><style>.cls-1{fill:#f7f9f9;}</style></defs><title>cog_1</title><g id="Layer_2" data-name="Layer 2"><g id="Layer_1-2" data-name="Layer 1"><path class="cls-1" d="M30,17.5v-5H27.25a12.42,12.42,0,0,0-1.83-4.38l2-2L23.84,2.62l-2,2A12.43,12.43,0,0,0,17.5,2.75V0h-5V2.75A12.4,12.4,0,0,0,8.12,4.58l-2-2L2.63,6.16l2,2A12.4,12.4,0,0,0,2.75,12.5H0v5H2.75a12.37,12.37,0,0,0,1.83,4.38l-2,2,3.54,3.53,2-2a12.37,12.37,0,0,0,4.38,1.83V30h5V27.24a12.4,12.4,0,0,0,4.38-1.83l2,2,3.53-3.53-2-2a12.44,12.44,0,0,0,1.83-4.38ZM15,20a5,5,0,1,1,5-5A5,5,0,0,1,15,20Z"/></g></g></svg>